<?xml version="1.0" standalone="no"?>
<!DOCTYPE svg PUBLIC "-//W3C//DTD SVG 20010904//EN"
 "http://www.w3.org/TR/2001/REC-SVG-20010904/DTD/svg10.dtd">
<svg version="1.0" xmlns="http://www.w3.org/2000/svg"
 width="512.000000pt" height="512.000000pt" viewBox="0 0 512.000000 512.000000"
 preserveAspectRatio="xMidYMid meet">

<g transform="translate(0.000000,512.000000) scale(0.100000,-0.100000)"
fill="#000000" stroke="none">
<path d="M1470 4793 c-60 -10 -153 -47 -207 -82 -119 -77 -224 -224 -239 -334
-6 -40 -3 -49 19 -71 27 -27 65 -33 97 -16 10 5 28 36 40 67 46 123 113 197
226 250 l59 28 1436 0 1435 0 76 -37 c91 -45 147 -103 191 -196 l32 -67 0
-1435 0 -1435 -28 -59 c-53 -113 -127 -180 -250 -226 -31 -12 -62 -30 -67 -40
-18 -33 -11 -75 15 -100 21 -20 31 -22 71 -16 156 21 334 185 396 364 l23 67
0 1445 c0 1386 -1 1447 -19 1500 -31 93 -76 167 -138 230 -68 68 -120 101
-217 139 l-66 26 -1430 1 c-786 1 -1441 0 -1455 -3z"/>
<path d="M763 4105 c-108 -24 -190 -70 -273 -154 -87 -88 -122 -148 -150 -257
-19 -75 -20 -115 -20 -1469 0 -944 3 -1410 11 -1451 17 -95 78 -210 149 -282
70 -70 121 -103 219 -141 l66 -26 1420 -3 c1268 -2 1428 -1 1492 13 191 42
345 182 415 375 l23 65 0 1440 c0 1386 -1 1442 -19 1495 -65 189 -184 315
-360 379 l-71 26 -1420 2 c-1166 1 -1431 -1 -1482 -12z m2937 -172 c65 -27
128 -75 176 -135 19 -24 44 -68 57 -98 l22 -55 3 -1399 c3 -1546 6 -1463 -61
-1575 -55 -92 -147 -157 -257 -180 -41 -9 -408 -11 -1455 -9 l-1400 3 -67 32
c-93 44 -151 100 -196 191 l-37 76 0 1435 0 1436 31 65 c40 82 87 136 155 177
109 65 22 62 1569 60 l1405 -2 55 -22z"/>
</g>
</svg>
